<svg xmlns="http://www.w3.org/2000/svg" width="1024" height="1024" viewBox="0 0 1024 1024">
  <path fill="#000000" d="M144.03 320.35 L144.54 319.43 L145.07 318.48 L145.6 317.53 L146.14 316.58 L146.69 315.62 L147.24 314.65 L147.79 313.68 L148.35 312.71 L148.92 311.73 L149.49 310.75 L150.06 309.76 L150.64 308.77 L151.23 307.78 L151.82 306.79 L152.42 305.79 L153.02 304.79 L153.63 303.79 L154.25 302.79 L154.87 301.78 L155.49 300.78 L156.12 299.77 L156.76 298.77 L157.4 297.76 L158.05 296.75 L158.7 295.75 L159.36 294.74 L160.03 293.74 L160.7 292.73 L161.38 291.73 L162.06 290.73 L162.75 289.73 L163.44 288.73 L164.14 287.73 L164.85 286.74 L165.57 285.74 L166.29 284.75 L167.02 283.77 L167.75 282.79 L168.49 281.81 L169.24 280.83 L169.99 279.86 L170.76 278.89 L171.53 277.93 L172.31 276.97 L173.09 276.02 L173.88 275.07 L174.69 274.12 L175.5 273.19 L176.31 272.25 L177.14 271.33 L177.98 270.41 L178.82 269.49 L179.68 268.59 L180.54 267.69 L181.42 266.8 L182.31 265.91 L183.2 265.04 L184.11 264.17 L185.03 263.31 L185.96 262.46 L186.9 261.62 L187.86 260.78 L188.83 259.96 L189.81 259.15 L190.8 258.35 L191.81 257.56 L192.84 256.78 L193.88 256.02 L194.94 255.27 L196.01 254.53 L197.1 253.8 L198.2 253.09 L199.33 252.4 L200.47 251.72 L201.63 251.06 L202.81 250.42 L204 249.79 L205.22 249.19 L206.46 248.61 L207.72 248.05 L208.99 247.51 L210.29 247 L211.61 246.51 L212.95 246.05 L214.31 245.62 L215.69 245.22 L217.09 244.86 L218.51 244.52 L219.94 244.22 L221.39 243.96 L222.86 243.73 L224.34 243.54 L225.84 243.39 L227.35 243.29 L228.87 243.22 L230.52 243.2 L233.19 243.27 L235.96 243.46 L238.7 243.79 L241.41 244.24 L244.07 244.81 L246.67 245.5 L249.22 246.3 L251.7 247.2 L254.12 248.2 L256.46 249.28 L258.74 250.45 L260.93 251.69 L263.06 252.99 L265.11 254.35 L267.1 255.77 L269.01 257.24 L270.87 258.74 L272.66 260.29 L274.39 261.87 L276.07 263.49 L277.69 265.13 L279.27 266.79 L280.8 268.48 L282.28 270.2 L283.73 271.93 L285.14 273.68 L286.52 275.44 L287.86 277.22 L289.17 279.02 L290.45 280.82 L291.71 282.64 L292.94 284.46 L294.15 286.3 L295.34 288.14 L296.51 289.99 L297.66 291.84 L298.79 293.7 L299.9 295.55 L301 297.41 L302.09 299.27 L303.16 301.13 L304.22 302.98 L305.27 304.83 L306.31 306.68 L307.34 308.51 L308.36 310.34 L309.37 312.16 L310.38 313.97 L311.37 315.76 L312.36 317.54 L313.35 319.3 L314.32 321.04 L315.3 322.77 L316.26 324.47 L317.22 326.15 L318.18 327.8 L319.13 329.43 L320.08 331.03 L321.02 332.6 L321.96 334.14 L322.89 335.64 L323.82 337.11 L324.74 338.54 L325.65 339.93 L326.56 341.28 L327.47 342.58 L328.36 343.84 L329.25 345.05 L330.12 346.22 L330.99 347.33 L331.84 348.39 L332.68 349.4 L333.51 350.35 L334.32 351.24 L335.11 352.07 L335.88 352.85 L336.62 353.57 L337.34 354.23 L338.04 354.83 L338.7 355.37 L339.34 355.85 L339.94 356.28 L340.5 356.66 L341.03 356.99 L341.53 357.27 L341.99 357.5 L342.42 357.7 L342.82 357.87 L343.19 358 L343.54 358.11 L343.87 358.2 L344.2 358.27 L344.53 358.33 L344.86 358.37 L345.22 358.39 L345.65 358.4 L345.98 358.39 L346.33 358.37 L346.63 358.34 L346.9 358.3 L347.14 358.26 L347.37 358.21 L347.58 358.15 L347.79 358.09 L348 358.01 L348.21 357.93 L348.43 357.83 L348.67 357.71 L348.92 357.57 L349.19 357.41 L349.49 357.22 L349.81 357 L350.15 356.75 L350.51 356.46 L350.9 356.14 L351.31 355.77 L351.74 355.37 L352.19 354.92 L352.66 354.43 L353.15 353.9 L353.66 353.32 L354.18 352.7 L354.71 352.04 L355.26 351.34 L355.82 350.6 L356.38 349.81 L356.96 348.99 L357.55 348.13 L358.15 347.23 L358.75 346.3 L359.36 345.34 L359.97 344.34 L360.6 343.31 L361.23 342.24 L361.86 341.15 L362.5 340.04 L363.15 338.89 L363.8 337.72 L364.46 336.53 L365.13 335.32 L365.8 334.08 L366.48 332.83 L367.17 331.55 L367.86 330.26 L368.57 328.95 L369.28 327.63 L370 326.29 L370.74 324.94 L371.49 323.58 L372.25 322.21 L373.02 320.82 L373.81 319.43 L374.61 318.03 L375.43 316.62 L376.27 315.21 L377.12 313.79 L378 312.36 L378.9 310.93 L379.83 309.5 L380.78 308.07 L381.76 306.64 L382.77 305.21 L383.8 303.78 L384.88 302.35 L385.99 300.93 L387.13 299.51 L388.32 298.1 L389.55 296.7 L390.83 295.31 L392.15 293.93 L393.53 292.57 L394.95 291.23 L396.44 289.91 L397.98 288.62 L399.58 287.36 L401.24 286.13 L402.97 284.94 L404.76 283.8 L406.61 282.7 L408.52 281.66 L410.49 280.68 L412.52 279.77 L414.61 278.93 L416.75 278.16 L418.94 277.48 L421.18 276.88 L423.45 276.37 L425.75 275.95 L428.09 275.62 L430.44 275.39 L432.81 275.25 L435.12 275.2 L436.66 275.22 L438.11 275.28 L439.55 275.37 L440.98 275.5 L442.39 275.66 L443.79 275.86 L445.17 276.1 L446.53 276.36 L447.87 276.65 L449.19 276.98 L450.49 277.33 L451.76 277.7 L453.01 278.1 L454.24 278.52 L455.44 278.97 L456.62 279.43 L457.78 279.91 L458.91 280.4 L460.01 280.91 L461.1 281.43 L462.15 281.97 L463.19 282.51 L464.2 283.06 L465.19 283.62 L466.16 284.19 L467.1 284.76 L468.03 285.34 L468.93 285.92 L469.82 286.51 L470.68 287.09 L471.53 287.68 L472.36 288.26 L473.17 288.85 L473.97 289.43 L474.74 290.01 L475.51 290.59 L476.25 291.17 L476.99 291.74 L477.7 292.31 L478.41 292.87 L479.1 293.43 L479.78 293.98 L480.44 294.52 L481.1 295.06 L481.74 295.59 L482.36 296.11 L482.98 296.63 L483.59 297.13 L484.18 297.63 L484.76 298.11 L485.34 298.59 L485.9 299.05 L486.45 299.51 L486.99 299.95 L487.52 300.38 L488.04 300.8 L488.55 301.2 L489.04 301.6 L489.53 301.98 L490.01 302.34 L490.47 302.7 L490.92 303.04 L491.37 303.36 L491.8 303.67 L492.21 303.97 L492.62 304.25 L493.01 304.51 L493.4 304.77 L493.76 305 L494.12 305.22 L494.46 305.43 L494.79 305.62 L495.11 305.8 L495.41 305.97 L495.69 306.12 L495.97 306.26 L496.23 306.38 L496.47 306.49 L496.7 306.6 L496.92 306.69 L497.12 306.77 L497.31 306.84 L497.49 306.9 L497.66 306.95 L497.82 307 L497.96 307.04 L498.1 307.07 L498.23 307.1 L498.36 307.12 L498.48 307.14 L498.6 307.16 L498.71 307.18 L498.83 307.19 L498.95 307.19 L499.07 307.2 L499.37 307.2 L857.6 307.2 A25.6 25.6 0 0 1 857.6 358.4 L499.03 358.4 L497.74 358.38 L496.29 358.32 L494.85 358.23 L493.42 358.1 L492.01 357.94 L490.61 357.74 L489.23 357.5 L487.87 357.24 L486.53 356.95 L485.21 356.62 L483.91 356.27 L482.64 355.9 L481.39 355.5 L480.16 355.08 L478.96 354.63 L477.78 354.17 L476.62 353.69 L475.49 353.2 L474.39 352.69 L473.3 352.17 L472.25 351.63 L471.21 351.09 L470.2 350.54 L469.21 349.98 L468.24 349.41 L467.3 348.84 L466.37 348.26 L465.47 347.68 L464.58 347.09 L463.72 346.51 L462.87 345.92 L462.04 345.34 L461.23 344.75 L460.43 344.17 L459.66 343.59 L458.89 343.01 L458.15 342.43 L457.41 341.86 L456.7 341.29 L455.99 340.73 L455.3 340.17 L454.62 339.62 L453.96 339.08 L453.3 338.54 L452.66 338.01 L452.04 337.49 L451.42 336.97 L450.81 336.47 L450.22 335.97 L449.64 335.49 L449.06 335.01 L448.5 334.55 L447.95 334.09 L447.41 333.65 L446.88 333.22 L446.36 332.8 L445.85 332.4 L445.36 332 L444.87 331.62 L444.39 331.26 L443.93 330.9 L443.48 330.56 L443.03 330.24 L442.6 329.93 L442.19 329.63 L441.78 329.35 L441.39 329.09 L441 328.83 L440.64 328.6 L440.28 328.38 L439.94 328.17 L439.61 327.98 L439.29 327.8 L438.99 327.63 L438.71 327.48 L438.43 327.34 L438.17 327.22 L437.93 327.11 L437.7 327 L437.48 326.91 L437.28 326.83 L437.09 326.76 L436.91 326.7 L436.74 326.65 L436.58 326.6 L436.44 326.56 L436.3 326.53 L436.17 326.5 L436.04 326.48 L435.92 326.46 L435.8 326.44 L435.69 326.42 L435.57 326.41 L435.45 326.41 L435.33 326.4 L435.28 326.4 L434.82 326.41 L434.47 326.43 L434.17 326.46 L433.9 326.5 L433.66 326.54 L433.43 326.59 L433.22 326.65 L433.01 326.71 L432.8 326.79 L432.59 326.87 L432.37 326.97 L432.13 327.09 L431.88 327.23 L431.61 327.39 L431.31 327.58 L430.99 327.8 L430.65 328.05 L430.29 328.34 L429.9 328.66 L429.49 329.03 L429.06 329.43 L428.61 329.88 L428.14 330.37 L427.65 330.9 L427.14 331.48 L426.62 332.1 L426.09 332.76 L425.54 333.46 L424.98 334.2 L424.42 334.99 L423.84 335.81 L423.25 336.67 L422.65 337.57 L422.05 338.5 L421.44 339.46 L420.83 340.46 L420.2 341.49 L419.57 342.56 L418.94 343.65 L418.3 344.76 L417.65 345.91 L417 347.08 L416.34 348.27 L415.67 349.48 L415 350.72 L414.32 351.97 L413.63 353.25 L412.94 354.54 L412.23 355.85 L411.52 357.17 L410.8 358.51 L410.06 359.86 L409.31 361.22 L408.55 362.59 L407.78 363.98 L406.99 365.37 L406.19 366.77 L405.37 368.18 L404.53 369.59 L403.68 371.01 L402.8 372.44 L401.9 373.87 L400.97 375.3 L400.02 376.73 L399.04 378.16 L398.03 379.59 L397 381.02 L395.92 382.45 L394.81 383.87 L393.67 385.29 L392.48 386.7 L391.25 388.1 L389.97 389.49 L388.65 390.87 L387.27 392.23 L385.85 393.57 L384.36 394.89 L382.82 396.18 L381.22 397.44 L379.56 398.67 L377.83 399.86 L376.04 401 L374.19 402.1 L372.28 403.14 L370.31 404.12 L368.28 405.03 L366.19 405.87 L364.05 406.64 L361.86 407.32 L359.62 407.92 L357.35 408.43 L355.05 408.85 L352.71 409.18 L350.36 409.41 L347.99 409.55 L345.55 409.6 L342.81 409.53 L340.04 409.34 L337.3 409.01 L334.59 408.56 L331.93 407.99 L329.33 407.3 L326.78 406.5 L324.3 405.6 L321.88 404.6 L319.54 403.52 L317.26 402.35 L315.07 401.11 L312.94 399.81 L310.89 398.45 L308.9 397.03 L306.99 395.56 L305.13 394.06 L303.34 392.51 L301.61 390.93 L299.93 389.31 L298.31 387.67 L296.73 386.01 L295.2 384.32 L293.72 382.6 L292.27 380.87 L290.86 379.12 L289.48 377.36 L288.14 375.58 L286.83 373.78 L285.55 371.98 L284.29 370.16 L283.06 368.34 L281.85 366.5 L280.66 364.66 L279.49 362.81 L278.34 360.96 L277.21 359.1 L276.1 357.25 L275 355.39 L273.91 353.53 L272.84 351.67 L271.78 349.82 L270.73 347.97 L269.69 346.12 L268.66 344.29 L267.64 342.46 L266.63 340.64 L265.62 338.83 L264.63 337.04 L263.64 335.26 L262.65 333.5 L261.68 331.76 L260.7 330.03 L259.74 328.33 L258.78 326.65 L257.82 325 L256.87 323.37 L255.92 321.77 L254.98 320.2 L254.04 318.66 L253.11 317.16 L252.18 315.69 L251.26 314.26 L250.35 312.87 L249.44 311.52 L248.53 310.22 L247.64 308.96 L246.75 307.75 L245.88 306.58 L245.01 305.47 L244.16 304.41 L243.32 303.4 L242.49 302.45 L241.68 301.56 L240.89 300.73 L240.12 299.95 L239.38 299.23 L238.66 298.57 L237.96 297.97 L237.3 297.43 L236.66 296.95 L236.06 296.52 L235.5 296.14 L234.97 295.81 L234.47 295.53 L234.01 295.3 L233.58 295.1 L233.18 294.93 L232.81 294.8 L232.46 294.69 L232.13 294.6 L231.8 294.53 L231.47 294.47 L231.14 294.43 L230.78 294.41 L230.28 294.4 L230.33 294.4 L230.26 294.4 L230.18 294.41 L230.09 294.42 L229.99 294.43 L229.88 294.45 L229.76 294.47 L229.63 294.5 L229.49 294.53 L229.33 294.57 L229.15 294.62 L228.96 294.69 L228.76 294.76 L228.53 294.84 L228.3 294.93 L228.05 295.04 L227.78 295.16 L227.5 295.29 L227.2 295.44 L226.89 295.6 L226.56 295.78 L226.22 295.97 L225.86 296.18 L225.5 296.41 L225.12 296.65 L224.73 296.91 L224.33 297.19 L223.91 297.48 L223.49 297.8 L223.06 298.13 L222.61 298.47 L222.16 298.83 L221.7 299.21 L221.23 299.61 L220.76 300.02 L220.28 300.45 L219.79 300.9 L219.3 301.36 L218.8 301.84 L218.29 302.34 L217.78 302.84 L217.27 303.37 L216.75 303.91 L216.23 304.46 L215.7 305.03 L215.17 305.61 L214.64 306.21 L214.1 306.81 L213.57 307.44 L213.03 308.07 L212.49 308.72 L211.95 309.37 L211.4 310.04 L210.86 310.73 L210.31 311.42 L209.76 312.12 L209.22 312.83 L208.67 313.56 L208.12 314.29 L207.57 315.03 L207.03 315.78 L206.48 316.54 L205.93 317.31 L205.39 318.09 L204.84 318.87 L204.3 319.66 L203.75 320.46 L203.21 321.27 L202.67 322.08 L202.13 322.89 L201.59 323.72 L201.05 324.55 L200.51 325.38 L199.98 326.22 L199.45 327.06 L198.92 327.91 L198.39 328.76 L197.86 329.61 L197.34 330.47 L196.81 331.33 L196.29 332.19 L195.77 333.05 L195.26 333.92 L194.74 334.79 L194.23 335.66 L193.72 336.53 L193.22 337.4 L192.71 338.27 L192.21 339.15 L191.71 340.02 L191.22 340.89 L190.72 341.76 L190.23 342.63 L189.74 343.5 L189.26 344.37 L188.77 345.25 A25.6 25.6 0 0 1 144.03 320.35 Z"/>
  <path fill="#000000" fill-opacity="0.8" d="M166.4 524.8 L857.6 524.8 A25.6 25.6 0 0 1 857.6 576 L166.4 576 A25.6 25.6 0 0 1 166.4 524.8 Z"/>
  <path fill="#000000" fill-opacity="0.8" d="M166.4 742.4 L627.2 742.4 A25.6 25.6 0 0 1 627.2 793.6 L166.4 793.6 A25.6 25.6 0 0 1 166.4 742.4 Z"/>
</svg>
